mtllib ChurchBench_LOD2.mtl
v 1.0597 0.8717 0.2566
v 1.0501 -0.0191 -0.4079
v 1.0401 0.5440 -0.3707
v 1.0530 -0.0061 0.3967
v 1.0268 0.4182 0.2147
v 1.0257 0.3935 -0.2655
v 0.8767 0.5274 0.2569
v 1.0694 0.9694 0.3743
v 1.0248 0.3373 0.0930
v 1.0254 0.3933 0.2829
v 1.0251 0.3284 -0.0278
v -1.0259 0.4158 0.2163
v -1.0255 0.4095 -0.2617
v 0.0007 0.3784 -0.2708
v -1.0292 0.4264 0.2924
v -1.0746 0.9631 0.3649
v 0.0190 0.3488 0.0882
v -0.0095 0.3822 0.2571
v -0.0041 -0.0102 -0.2561
v 0.0190 0.2215 0.0928
v -0.0050 -0.0095 0.2820
v 0.0195 0.2280 -0.0260
v 1.0247 0.2143 0.0861
v -1.0269 0.8743 0.3214
v 0.8771 0.7704 0.3008
v 0.0319 0.7739 0.3035
v -1.0376 0.5043 -0.4020
v -1.0510 -0.0087 -0.3988
v -1.0529 -0.0064 0.3967
v -1.0256 0.3846 0.2741
v -1.0247 0.3373 0.0930
v -1.0254 0.3846 -0.2595
v -1.0227 0.3286 -0.0306
v -0.0182 0.2221 0.0922
v -0.0100 0.2506 -0.0478
v -1.0250 0.2140 0.0861
vn 1.0000 0.0000 0.0000
vn 1.0000 0.0000 0.0000
vn 1.0000 0.0000 0.0000
vn 1.0000 0.0000 0.0000
vn 1.0000 0.0000 0.0000
vn 1.0000 0.0000 0.0000
vn -1.0000 0.0000 0.0000
vn -1.0000 0.0000 0.0000
vn -1.0000 0.0000 0.0000
vn -0.9961 0.0736 -0.0479
vn -1.0000 0.0000 0.0000
vn -1.0000 0.0000 0.0000
vn -1.0000 0.0000 0.0000
vn 0.0000 0.3159 -0.9488
vn -1.0000 0.0000 0.0000
vn 1.0000 0.0000 0.0000
vn 1.0000 0.0000 0.0000
vn 1.0000 0.0000 0.0000
vn -1.0000 0.0000 0.0000
vn -1.0000 0.0000 0.0000
vn -1.0000 0.0000 0.0000
vn -1.0000 0.0000 0.0000
vn -1.0000 0.0000 0.0000
vn -1.0000 0.0000 0.0000
vn -1.0000 0.0000 0.0000
vn -1.0000 0.0000 0.0000
vn -1.0000 0.0000 0.0000
vn -1.0000 0.0000 0.0000
vn -1.0000 0.0000 0.0000
vn -1.0000 0.0000 0.0000
vn 0.0000 1.0000 0.0000
vn 0.0000 1.0000 0.0000
vn 0.0000 1.0000 0.0000
vn 0.0000 1.0000 0.0000
vn 0.0000 1.0000 0.0000
vn 0.0000 1.0000 0.0000
vn -1.0000 0.0000 0.0000
vn -1.0000 0.0000 0.0000
vn -0.9961 0.0736 -0.0479
vn 0.0000 0.1670 -0.9860
vn 0.0000 0.0000 -1.0000
vn 0.0000 0.0000 -1.0000
vn 0.0000 -0.2334 0.9724
vn 0.0000 -0.1816 0.9834
vn 0.0000 -0.1816 0.9834
vn 0.0000 -0.1816 0.9834
vn 0.0000 -0.2334 0.9724
vn 0.0000 -0.2334 0.9724
vn 0.0000 -0.7665 0.6422
vn 0.0000 -0.7665 0.6422
vn 0.0000 -0.6584 0.7526
vn 1.0000 0.0000 0.0000
vn 1.0000 0.0000 0.0000
vn 1.0000 0.0000 0.0000
vn 1.0000 0.0000 0.0000
vn 1.0000 0.0000 0.0000
vn 1.0000 0.0000 0.0000
vn -1.0000 0.0000 0.0000
vn -1.0000 0.0000 0.0000
vn -1.0000 0.0000 0.0000
vn 0.0000 -1.0000 0.0000
vn 0.0000 -1.0000 0.0000
vn 0.0000 -1.0000 0.0000
vn 0.0000 0.0000 -1.0000
vn 0.0000 0.0000 -1.0000
vn 0.0000 0.0000 -1.0000
vn 0.0000 0.0000 -1.0000
vn 0.0000 0.0000 -1.0000
vn 0.0000 0.0000 -1.0000
vn 1.0000 0.0000 0.0000
vn 1.0000 0.0000 0.0000
vn 1.0000 0.0000 0.0000
vn 1.0000 0.0000 0.0000
vn 1.0000 0.0000 0.0000
vn 1.0000 0.0000 0.0000
vn 1.0000 0.0000 0.0000
vn 1.0000 0.0000 0.0000
vn 1.0000 0.0000 0.0000
vn 0.0000 -1.0000 0.0000
vn 0.0000 -1.0000 0.0000
vn 0.0000 -1.0000 0.0000
vn 0.0000 -1.0000 0.0000
vn 0.0000 -1.0000 0.0000
vn 0.0000 -1.0000 0.0000
vn 0.0000 1.0000 0.0000
vn 0.0000 1.0000 0.0000
vn 0.0000 1.0000 0.0000
vn 0.0000 0.0000 1.0000
vn 0.0000 0.0000 1.0000
vn 0.0000 0.0000 1.0000
vn 0.0000 0.0000 1.0000
vn 0.0000 0.0000 1.0000
vn 0.0000 0.0000 1.0000
vn -1.0000 0.0000 0.0000
vn -1.0000 0.0000 0.0000
vn -1.0000 0.0000 0.0000
vn -1.0000 0.0000 0.0000
vn -1.0000 0.0000 0.0000
vn -1.0000 0.0000 0.0000
vn 0.0000 -1.0000 0.0000
vn 0.0000 -1.0000 0.0000
vn 0.0000 -1.0000 0.0000
vn -1.0000 0.0000 0.0000
vn -1.0000 0.0000 0.0000
vn 0.0000 0.3159 -0.9488
vn -1.0000 0.0000 0.0000
vn -1.0000 0.0000 0.0000
vn -1.0000 0.0000 0.0000
vn 0.0000 0.1970 -0.9804
vn 0.0000 0.1970 -0.9804
vn 0.0000 0.1970 -0.9804
vn 0.0000 0.1970 -0.9804
vn 0.0000 0.4299 -0.9028
vn -0.0150 0.1432 -0.9896
vn -0.0150 0.1432 -0.9896
vn 0.0000 0.1432 -0.9897
vn 0.0000 0.1970 -0.9804
vn 0.0000 0.0461 0.9989
vn 0.0000 0.0461 0.9989
vn 0.0000 0.0461 0.9989
vn -1.0000 0.0000 0.0000
vn -1.0000 0.0000 0.0000
vn -1.0000 0.0000 0.0000
vn -1.0000 0.0000 0.0000
vn -1.0000 0.0000 0.0000
vn -1.0000 0.0000 0.0000
vn 0.9961 0.0742 -0.0483
vn 1.0000 0.0000 0.0000
vn 1.0000 0.0000 0.0000
vn 1.0000 0.0000 0.0000
vn 0.9961 0.0742 -0.0483
vn 1.0000 0.0000 0.0000
vn 1.0000 0.0000 0.0000
vn 1.0000 0.0000 0.0000
vn 1.0000 0.0000 0.0000
vn 1.0000 0.0000 0.0000
vn 1.0000 0.0000 0.0000
vn 1.0000 0.0000 0.0000
vn 1.0000 0.0000 0.0000
vn 1.0000 0.0000 0.0000
vn 1.0000 0.0000 0.0000
vn 1.0000 0.0000 0.0000
vn 1.0000 0.0000 0.0000
vn 1.0000 0.0000 0.0000
vn 1.0000 0.0000 0.0000
vn 1.0000 0.0000 0.0000
vn 1.0000 0.0000 0.0000
vn 0.9961 0.0742 -0.0483
vn 1.0000 0.0000 0.0000
vn 1.0000 0.0000 0.0000
vn 1.0000 0.0000 0.0000
vn 1.0000 0.0000 0.0000
vn 0.9961 0.0742 -0.0483
vn 0.0000 -0.6584 0.7526
vn 0.0000 -0.7665 0.6422
vn 0.0000 -0.7665 0.6422
vn -1.0000 0.0000 0.0000
vn -1.0000 0.0000 0.0000
vn -1.0000 0.0000 0.0000
vn -1.0000 0.0000 0.0000
vn -1.0000 0.0000 0.0000
vn -1.0000 0.0000 0.0000
vn 1.0000 0.0000 0.0000
vn 1.0000 0.0000 0.0000
vn 1.0000 0.0000 0.0000
vn 0.0000 -1.0000 0.0000
vn 0.0000 -1.0000 0.0000
vn 0.0000 -1.0000 0.0000
vn 0.0000 0.0000 -1.0000
vn 0.0000 0.0000 -1.0000
vn 0.0000 0.0000 -1.0000
vn 0.0000 0.0000 -1.0000
vn 0.0000 0.0000 -1.0000
vn 0.0000 0.0000 -1.0000
vn -1.0000 0.0000 0.0000
vn -1.0000 0.0000 0.0000
vn -1.0000 0.0000 0.0000
vn -1.0000 0.0000 0.0000
vn -1.0000 0.0000 0.0000
vn -1.0000 0.0000 0.0000
vn -1.0000 0.0000 0.0000
vn -1.0000 0.0000 0.0000
vn -1.0000 0.0000 0.0000
vn 0.0000 -1.0000 0.0000
vn 0.0000 -1.0000 0.0000
vn 0.0000 -1.0000 0.0000
vn 0.0000 -1.0000 0.0000
vn 0.0000 -1.0000 0.0000
vn 0.0000 -1.0000 0.0000
vn 0.0000 1.0000 0.0000
vn 0.0000 1.0000 0.0000
vn 0.0000 1.0000 0.0000
vn 0.0000 0.0000 1.0000
vn 0.0000 0.0000 1.0000
vn 0.0000 0.0000 1.0000
vn 0.0000 0.0000 1.0000
vn 0.0000 0.0000 1.0000
vn 0.0000 0.0000 1.0000
vn 1.0000 0.0000 0.0000
vn 1.0000 0.0000 0.0000
vn 1.0000 0.0000 0.0000
vn 1.0000 0.0000 0.0000
vn 1.0000 0.0000 0.0000
vn 1.0000 0.0000 0.0000
vn 1.0000 0.0000 0.0000
vn 1.0000 0.0000 0.0000
vn 1.0000 0.0000 0.0000
vn 0.0000 0.1970 -0.9804
vn 0.0000 0.1970 -0.9804
vn 0.0000 0.4299 -0.9028
vn 0.0000 0.1970 -0.9804
vn 0.0000 0.1970 -0.9804
vn 0.0000 0.1970 -0.9804
vt 0.1179 0.6954 
vt 0.2706 0.6040 
vt 0.2706 0.4572 
vt 0.2706 0.4572 
vt 0.0704 0.4572 
vt 0.1179 0.6954 
vt 0.1122 0.3342 
vt 0.2325 0.3412 
vt 0.1143 0.2030 
vt 0.2670 0.2945 
vt 0.1143 0.2030 
vt 0.2325 0.3412 
vt 0.1143 0.2030 
vt 0.1031 0.3026 
vt 0.1122 0.3342 
vt 0.0704 0.6952 
vt 0.1179 0.6954 
vt 0.0704 0.4572 
vt 0.1433 0.3545 
vt 0.0974 0.3412 
vt 0.0668 0.4413 
vt 0.2325 0.3412 
vt 0.0974 0.3412 
vt 0.1433 0.3545 
vt 0.1433 0.3545 
vt 0.1722 0.3545 
vt 0.2325 0.3412 
vt 0.2670 0.4413 
vt 0.2325 0.3412 
vt 0.1722 0.3545 
vt 0.9778 0.3750 
vt 0.9779 0.1979 
vt 0.2727 0.1972 
vt 0.2727 0.1972 
vt 0.2727 0.3691 
vt 0.9778 0.3750 
vt 0.2325 0.3412 
vt 0.2670 0.4413 
vt 0.2670 0.2945 
vt 0.2727 0.3691 
vt 0.6729 0.3764 
vt 0.9778 0.3750 
vt 0.2727 0.0347 
vt 0.2726 0.1963 
vt 0.9810 0.1967 
vt 0.9810 0.1967 
vt 0.9811 0.0163 
vt 0.2727 0.0347 
vt 0.6154 0.0085 
vt 0.6027 0.0088 
vt 0.9811 0.0163 
vt 0.9972 0.8842 
vt 0.8641 0.8842 
vt 0.9103 0.9411 
vt 0.9103 0.9411 
vt 0.9393 0.9411 
vt 0.9972 0.8842 
vt 0.1433 0.3843 
vt 0.0668 0.4413 
vt 0.2670 0.4413 
vt 0.2726 0.6419 
vt 0.2726 0.6818 
vt 0.6284 0.6819 
vt 0.6285 0.6010 
vt 0.2727 0.5610 
vt 0.2726 0.6419 
vt 0.2726 0.6419 
vt 0.6284 0.6819 
vt 0.6285 0.6010 
vt 0.9103 0.9709 
vt 0.9103 0.9411 
vt 0.8641 0.8842 
vt 0.9393 0.9411 
vt 0.9103 0.9709 
vt 0.9972 0.9808 
vt 0.9972 0.9808 
vt 0.9972 0.8842 
vt 0.9393 0.9411 
vt 0.6289 0.5605 
vt 0.9848 0.5605 
vt 0.9848 0.3834 
vt 0.9848 0.3834 
vt 0.6289 0.3834 
vt 0.6289 0.5605 
vt 0.2727 0.5610 
vt 0.6285 0.6010 
vt 0.6285 0.5611 
vt 0.6284 0.6819 
vt 0.2726 0.6818 
vt 0.2726 0.7228 
vt 0.2726 0.7228 
vt 0.6284 0.7230 
vt 0.6284 0.6819 
vt 0.2670 0.4413 
vt 0.1722 0.3545 
vt 0.1433 0.3843 
vt 0.1433 0.3843 
vt 0.1433 0.3545 
vt 0.0668 0.4413 
vt 0.8382 0.8314 
vt 0.3037 0.8127 
vt 0.3035 0.8314 
vt 0.1143 0.2030 
vt 0.0858 0.2164 
vt 0.1031 0.3026 
vt 0.0668 0.4413 
vt 0.0974 0.3412 
vt 0.0684 0.2115 
vt 0.9913 0.8345 
vt 0.6914 0.8708 
vt 0.9444 0.8678 
vt 0.6204 0.7286 
vt 0.2726 0.7732 
vt 0.9389 0.7286 
vt 0.5670 0.9607 
vt 0.5670 0.8771 
vt 0.2726 0.8771 
vt 0.0216 0.7589 
vt 0.0216 0.8556 
vt 0.0309 0.8556 
vt 0.0674 0.1593 
vt 0.2686 0.0139 
vt 0.0684 0.0125 
vt 0.0674 0.1593 
vt 0.2670 0.2519 
vt 0.2686 0.0139 
vt 0.0661 0.7238 
vt 0.1001 0.7674 
vt 0.2204 0.7652 
vt 0.2466 0.6429 
vt 0.0661 0.7238 
vt 0.2204 0.7652 
vt 0.2352 0.7724 
vt 0.1891 0.7853 
vt 0.2646 0.8729 
vt 0.1001 0.7709 
vt 0.1602 0.7849 
vt 0.1891 0.7853 
vt 0.1891 0.7853 
vt 0.2352 0.7724 
vt 0.1001 0.7709 
vt 0.1001 0.7709 
vt 0.0644 0.8706 
vt 0.1602 0.7849 
vt 0.2352 0.7724 
vt 0.2646 0.8729 
vt 0.2385 0.7654 
vt 0.0661 0.7238 
vt 0.0644 0.8706 
vt 0.1001 0.7709 
vt 0.1001 0.7709 
vt 0.1001 0.7674 
vt 0.0661 0.7238 
vt 0.9811 0.0163 
vt 0.6027 0.0088 
vt 0.2726 0.0165 
vt 0.2659 0.9817 
vt 0.2080 0.9247 
vt 0.1790 0.9247 
vt 0.1790 0.9247 
vt 0.1328 0.9817 
vt 0.2659 0.9817 
vt 0.0644 0.8706 
vt 0.2646 0.8729 
vt 0.1888 0.8150 
vt 0.6290 0.6818 
vt 0.9848 0.6818 
vt 0.9848 0.6419 
vt 0.6290 0.6009 
vt 0.6290 0.6818 
vt 0.9848 0.6419 
vt 0.9848 0.6419 
vt 0.9848 0.5610 
vt 0.6290 0.6009 
vt 0.1328 0.9817 
vt 0.1790 0.9247 
vt 0.1373 0.8851 
vt 0.2080 0.9247 
vt 0.2659 0.9817 
vt 0.2659 0.8851 
vt 0.2659 0.8851 
vt 0.1373 0.8851 
vt 0.2080 0.9247 
vt 0.6284 0.5605 
vt 0.6284 0.3834 
vt 0.2727 0.3760 
vt 0.2727 0.3760 
vt 0.2726 0.5605 
vt 0.6284 0.5605 
vt 0.6290 0.5610 
vt 0.6290 0.6009 
vt 0.9848 0.5610 
vt 0.6290 0.6818 
vt 0.6290 0.7228 
vt 0.9848 0.7228 
vt 0.9848 0.7228 
vt 0.9848 0.6818 
vt 0.6290 0.6818 
vt 0.1602 0.7849 
vt 0.0644 0.8706 
vt 0.1888 0.8150 
vt 0.1891 0.7853 
vt 0.1888 0.8150 
vt 0.2646 0.8729 
vt 0.2385 0.7654 
vt 0.2646 0.8729 
vt 0.2656 0.6431 
vt 0.8618 0.8771 
vt 0.5675 0.8771 
vt 0.5675 0.9607 
vt 0.6914 0.8708 
vt 0.9913 0.8345 
vt 0.3001 0.8345 
g ChurchBench
usemtl ChurchBench
f 2/3/3 3/2/2 1/1/1
f 1/6/6 4/5/5 2/4/4
f 1/9/9 6/8/8 5/7/7
f 6/12/12 1/11/11 3/10/10
f 5/15/15 7/14/14 1/13/13
f 4/18/18 1/17/17 8/16/16
f 4/21/21 10/20/20 9/19/19
f 9/24/24 10/23/23 6/22/22
f 6/27/27 11/26/26 9/25/25
f 11/30/30 6/29/29 2/28/28
f 12/33/33 5/32/32 6/31/31
f 6/36/36 13/35/35 12/34/34
f 3/39/39 2/38/38 6/37/37
f 6/42/42 14/41/41 13/40/40
f 8/45/45 16/44/44 15/43/43
f 15/48/48 10/47/47 8/46/46
f 10/51/51 18/50/50 17/49/49
f 20/54/54 21/53/53 19/52/52
f 19/57/57 22/56/56 20/55/55
f 2/60/60 4/59/59 23/58/58
f 23/63/63 20/62/62 22/61/61
f 22/66/66 17/65/65 11/64/64
f 11/69/69 23/68/68 22/67/67
f 21/72/72 20/71/71 17/70/70
f 14/75/75 17/74/74 22/73/73
f 22/78/78 19/77/77 14/76/76
f 6/81/81 10/80/80 17/79/79
f 17/84/84 14/83/83 6/82/82
f 9/87/87 11/86/86 17/85/85
f 17/90/90 20/89/89 23/88/88
f 23/93/93 9/92/92 17/91/91
f 23/96/96 11/95/95 2/94/94
f 4/99/99 9/98/98 23/97/97
f 24/102/102 16/101/101 8/100/100
f 7/105/105 8/104/104 1/103/103
f 8/108/108 10/107/107 4/106/106
f 25/111/111 26/110/110 8/109/109
f 7/114/114 12/113/113 26/112/112
f 26/117/117 25/116/116 7/115/115
f 17/120/120 18/119/119 21/118/118
f 28/123/123 29/122/122 27/121/121
f 29/126/126 16/125/125 27/124/124
f 12/129/129 13/128/128 27/127/127
f 12/132/132 27/131/131 16/130/130
f 29/135/135 31/134/134 30/133/133
f 31/138/138 33/137/137 32/136/136
f 32/141/141 30/140/140 31/139/139
f 33/144/144 28/143/143 32/142/142
f 15/147/147 29/146/146 30/145/145
f 32/150/150 28/149/149 27/148/148
f 27/153/153 13/152/152 32/151/151
f 30/156/156 18/155/155 10/154/154
f 34/159/159 35/158/158 19/157/157
f 19/162/162 21/161/161 34/160/160
f 36/165/165 29/164/164 28/163/163
f 35/168/168 34/167/167 36/166/166
f 35/171/171 36/170/170 33/169/169
f 33/174/174 18/173/173 35/172/172
f 18/177/177 34/176/176 21/175/175
f 14/180/180 19/179/179 35/178/178
f 35/183/183 18/182/182 14/181/181
f 32/186/186 14/185/185 18/184/184
f 18/189/189 30/188/188 32/187/187
f 18/192/192 33/191/191 31/190/190
f 18/195/195 31/194/194 36/193/193
f 36/198/198 34/197/197 18/196/196
f 36/201/201 28/200/200 33/199/199
f 29/204/204 36/203/203 31/202/202
f 16/207/207 29/206/206 15/205/205
f 12/210/210 24/209/209 26/208/208
f 24/213/213 8/212/212 26/211/211
