# Blender v2.78 (sub 0) OBJ File: 'Wild west.blend'
# www.blender.org
mtllib Trough.mtl
g Trough
v -0.669038 0.000000 0.277247
v -0.807389 0.311160 0.233720
v -0.669038 0.000000 -0.277247
v -0.807389 0.311160 -0.233720
v -0.850915 0.311160 0.277247
v -0.850915 0.311160 -0.277247
v -0.677233 0.037532 0.167079
v -0.677233 0.037532 -0.167079
v -0.669038 0.000000 -0.242614
v -0.669038 0.000000 0.242614
v -0.850915 0.311160 0.242614
v -0.850915 0.311160 -0.242614
v -0.868582 0.345083 0.242614
v -0.868582 0.345083 0.282753
v -0.869460 0.345083 -0.282753
v -0.869460 0.345083 -0.242614
v -0.895623 0.345083 0.242614
v -0.696079 0.000000 -0.242614
v -0.696079 0.000000 -0.282753
v -0.896501 0.345083 -0.282753
v -0.896501 0.345083 -0.242614
v -0.895623 0.345083 0.282753
v -0.696079 0.000000 0.282753
v -0.696079 0.000000 0.242614
v -0.669038 0.000000 0.282753
v -0.669038 0.000000 -0.282753
v 0.669038 0.000000 0.277247
v 0.807389 0.311160 0.233720
v 0.669038 0.000000 -0.277247
v 0.807389 0.311160 -0.233720
v 0.850915 0.311160 0.277247
v 0.850915 0.311160 -0.277247
v 0.677233 0.037532 0.167079
v 0.677233 0.037532 -0.167079
v 0.669038 0.000000 -0.242614
v 0.669038 0.000000 0.242614
v 0.850915 0.311160 0.242614
v 0.850915 0.311160 -0.242614
v 0.868582 0.345083 0.242614
v 0.868582 0.345083 0.282753
v 0.869460 0.345083 -0.282753
v 0.869460 0.345083 -0.242614
v 0.895623 0.345083 0.242614
v 0.696079 0.000000 -0.242614
v 0.696079 0.000000 -0.282753
v 0.896501 0.345083 -0.282753
v 0.896501 0.345083 -0.242614
v 0.895623 0.345083 0.282753
v 0.696079 0.000000 0.282753
v 0.696079 0.000000 0.242614
v 0.669038 0.000000 0.282753
v 0.669038 0.000000 -0.282753
vt 0.9589 0.7169
vt 0.9589 0.8999
vt 0.9405 0.8999
vt 0.9405 0.7169
vt 0.8762 0.2104
vt 0.8774 0.3923
vt 0.8591 0.3924
vt 0.8579 0.2105
vt 0.0204 0.2356
vt 0.0003 0.2556
vt 0.0003 0.2397
vt 0.0204 0.0204
vt 0.0003 0.0163
vt 0.0003 0.0003
vt 0.8880 0.3860
vt 0.9080 0.3860
vt 0.9080 0.3995
vt 0.8880 0.3995
vt 0.9103 0.9340
vt 0.7444 0.9340
vt 0.7444 0.7106
vt 0.9103 0.7106
vt 0.9269 0.8759
vt 0.9269 0.7106
vt 0.9298 0.7106
vt 0.9298 0.8937
vt 0.9997 0.5396
vt 0.7845 0.5396
vt 0.8152 0.4001
vt 0.9690 0.4001
vt 0.9113 0.8940
vt 0.9300 0.9061
vt 0.9116 0.9065
vt 0.0003 0.8046
vt 0.6239 0.8046
vt 0.6239 0.9585
vt 0.0003 0.9585
vt 0.7438 0.5440
vt 0.6838 0.6737
vt 0.0602 0.6737
vt 0.0003 0.5440
vt 0.9696 0.7106
vt 0.9692 0.8759
vt 0.8490 0.3688
vt 0.8472 0.2044
vt 0.7638 0.2356
vt 0.7838 0.2556
vt 0.9696 0.8937
vt 0.8908 0.3670
vt 0.9080 0.3670
vt 0.8484 0.3863
vt 0.9110 0.8762
vt 0.0841 0.4001
vt 0.7001 0.4001
vt 0.7838 0.5434
vt 0.0003 0.5434
vt 0.7838 0.0003
vt 0.7638 0.0204
vt 0.0602 0.6743
vt 0.6838 0.6743
vt 0.7438 0.8040
vt 0.0003 0.8040
vt 0.8868 0.2042
vt 0.8897 0.2041
vt 0.9194 0.2102
vt 0.9376 0.2102
vt 0.9376 0.3918
vt 0.9193 0.3918
vt 0.8172 0.2106
vt 0.8357 0.2110
vt 0.8320 0.3939
vt 0.8135 0.3935
vt 0.7838 0.2397
vt 0.7838 0.0163
vt 0.8029 0.3871
vt 0.8029 0.3995
vt 0.7845 0.3995
vt 0.7845 0.3871
vt 0.7444 0.5440
vt 0.9678 0.5440
vt 0.9678 0.7100
vt 0.7444 0.7100
vt 0.9511 0.3658
vt 0.9482 0.3856
vt 0.9483 0.2040
vt 0.9511 0.2040
vt 0.9997 0.0003
vt 0.9690 0.1398
vt 0.8152 0.1398
vt 0.7845 0.0003
vt 0.9688 0.3857
vt 0.9687 0.3995
vt 0.9482 0.3994
vt 0.9087 0.2040
vt 0.9091 0.3680
vt 0.8424 0.3703
vt 0.8465 0.2050
vt 0.9087 0.3856
vt 0.8004 0.3695
vt 0.7845 0.3695
vt 0.8428 0.3879
vt 0.9688 0.3659
vt 0.8066 0.2042
vt 0.8037 0.2041
vt 0.7001 0.3995
vt 0.0841 0.3995
vt 0.0003 0.2562
vt 0.7838 0.2562
vn -0.8647 -0.5022 0.0000
vn -0.8657 -0.5006 0.0000
vn 0.0000 1.0000 0.0000
vn -0.8633 -0.5046 0.0000
vn 0.8602 0.5011 0.0950
vn 0.9030 0.4295 0.0000
vn 0.0000 0.2366 -0.9716
vn 0.0000 -0.0000 1.0000
vn 0.0000 0.0000 -1.0000
vn 0.8869 0.4619 0.0000
vn 0.8774 0.4797 0.0000
vn 0.0000 0.2366 0.9716
vn 0.8536 0.4961 -0.1589
vn 0.8647 -0.5022 0.0000
vn 0.8657 -0.5006 0.0000
vn 0.8633 -0.5046 0.0000
vn -0.8602 0.5011 0.0950
vn -0.9030 0.4295 0.0000
vn -0.8869 0.4619 0.0000
vn -0.8774 0.4797 0.0000
vn -0.8536 0.4961 -0.1589
usemtl Trough
s off
f 18/1/1 21/2/1 20/3/1 19/4/1
f 23/5/2 22/6/2 17/7/2 24/8/2
f 4/9/3 6/10/3 12/11/3
f 2/12/3 11/13/3 5/14/3
f 2/12/3 4/9/3 12/11/3 11/13/3
f 14/15/3 13/16/3 17/17/3 22/18/3
f 10/19/4 11/20/4 12/21/4 9/22/4
f 6/23/5 3/24/5 26/25/5 15/26/5
f 4/27/6 2/28/6 7/29/6 8/30/6
f 16/31/3 15/26/3 20/32/3 21/33/3
f 7/34/3 33/35/3 34/36/3 8/37/3
f 28/38/7 33/39/7 7/40/7 2/41/7
f 9/42/8 12/43/8 21/2/8 18/1/8
f 11/44/9 10/45/9 24/8/9 17/7/9
f 30/46/3 32/47/3 6/10/3 4/9/3
f 21/2/8 12/43/8 16/48/8
f 5/49/10 11/50/10 13/16/10 14/15/10
f 11/44/9 17/7/9 13/51/9
f 12/52/11 6/23/11 15/26/11 16/31/11
f 1/53/8 27/54/8 31/55/8 5/56/8
f 5/14/3 31/57/3 28/58/3 2/12/3
f 8/59/12 34/60/12 30/61/12 4/62/12
f 15/26/9 26/25/9 19/4/9 20/3/9
f 25/63/8 14/15/8 22/6/8 23/5/8
f 1/64/13 5/49/13 14/15/13 25/63/13
f 44/65/14 45/66/14 46/67/14 47/68/14
f 49/69/15 50/70/15 43/71/15 48/72/15
f 30/46/3 38/73/3 32/47/3
f 28/58/3 31/57/3 37/74/3
f 28/58/3 37/74/3 38/73/3 30/46/3
f 40/75/3 48/76/3 43/77/3 39/78/3
f 36/79/16 35/80/16 38/81/16 37/82/16
f 32/83/17 41/84/17 52/85/17 29/86/17
f 30/87/18 34/88/18 33/89/18 28/90/18
f 42/91/3 47/92/3 46/93/3 41/84/3
f 35/94/8 44/65/8 47/68/8 38/95/8
f 37/96/9 43/71/9 50/70/9 36/97/9
f 47/68/8 42/98/8 38/95/8
f 31/99/19 40/75/19 39/78/19 37/100/19
f 37/96/9 39/101/9 43/71/9
f 38/102/20 42/91/20 41/84/20 32/83/20
f 41/84/9 46/67/9 45/66/9 52/85/9
f 51/103/8 49/69/8 48/72/8 40/75/8
f 27/104/21 51/103/21 40/75/21 31/99/21
f 29/105/9 3/106/9 6/107/9 32/108/9
