# Blender v2.78 (sub 0) OBJ File: 'Wild west.blend'
# www.blender.org
mtllib PreacherStand.mtl
g PreacherStand
v 0.207535 1.226792 0.193433
v 0.207535 1.226792 -0.213155
v 0.207535 0.056874 -0.213155
v 0.207535 0.056874 0.193433
v 0.347075 0.056874 0.307037
v 0.347075 0.056874 -0.307037
v 0.347075 0.000000 -0.307037
v 0.347075 0.000000 0.307037
v 0.313455 1.265840 -0.318026
v 0.313455 1.487039 0.279715
v 0.333369 1.226792 -0.318028
v 0.333369 1.226792 0.298306
v 0.333369 1.298688 -0.318028
v 0.313455 1.537049 0.161790
v 0.313455 1.537049 0.275618
v 0.333369 1.512576 0.165887
v 0.333369 1.512576 0.298306
v 0.313447 1.317626 -0.334345
v 0.344133 1.512576 0.161787
v 0.344133 1.512576 0.310172
v 0.344133 1.537049 0.161789
v 0.344133 1.537049 0.310174
v 0.344126 1.317626 -0.334346
v 0.313456 1.226792 -0.318028
v 0.313448 1.225970 -0.334346
v 0.344126 1.225970 -0.334346
v 0.344134 1.226792 -0.318028
v 0.344134 1.298688 -0.318028
v 0.178369 1.197626 -0.213155
v 0.178369 0.092263 -0.213155
v 0.178369 0.092263 0.193433
v 0.178369 1.197626 0.193433
v 0.207535 0.092263 -0.183989
v 0.207535 1.197626 -0.183989
v 0.207535 1.197626 0.164267
v 0.207535 0.092263 0.164267
v 0.304203 1.255957 0.298306
v 0.304203 1.483410 0.298306
v 0.178370 0.092263 -0.187783
v 0.178370 1.197626 -0.187783
v 0.178370 1.197626 0.173993
v 0.178370 0.092263 0.173993
v 0.180095 1.197626 -0.183989
v 0.180095 0.092263 -0.183989
v 0.180095 0.092263 0.164267
v 0.180095 1.197626 0.164267
v 0.304204 1.255957 0.287528
v 0.304204 1.483410 0.287528
v -0.207535 1.226792 0.193433
v -0.207535 1.226792 -0.213155
v -0.207535 0.056874 -0.213155
v -0.207535 0.056874 0.193433
v -0.347075 0.056874 0.307037
v -0.347075 0.056874 -0.307037
v -0.347075 0.000000 -0.307037
v -0.347075 0.000000 0.307037
v -0.313455 1.265840 -0.318026
v -0.313455 1.487039 0.279715
v -0.333369 1.226792 -0.318028
v -0.333369 1.226792 0.298306
v -0.333369 1.298688 -0.318028
v -0.313455 1.537049 0.161790
v -0.313455 1.537049 0.275618
v -0.333369 1.512576 0.165887
v -0.333369 1.512576 0.298306
v -0.313447 1.317626 -0.334345
v -0.344133 1.512576 0.161787
v -0.344133 1.512576 0.310172
v -0.344133 1.537049 0.161789
v -0.344133 1.537049 0.310174
v -0.344126 1.317626 -0.334346
v -0.313456 1.226792 -0.318028
v -0.313448 1.225970 -0.334346
v -0.344126 1.225970 -0.334346
v -0.344134 1.226792 -0.318028
v -0.344134 1.298688 -0.318028
v -0.178369 1.197626 -0.213155
v -0.178369 0.092263 -0.213155
v -0.178369 0.092263 0.193433
v -0.178369 1.197626 0.193433
v -0.207535 0.092263 -0.183989
v -0.207535 1.197626 -0.183989
v -0.207535 1.197626 0.164267
v -0.207535 0.092263 0.164267
v -0.304203 1.255957 0.298306
v -0.304203 1.483410 0.298306
v -0.178370 0.092263 -0.187783
v -0.178370 1.197626 -0.187783
v -0.178370 1.197626 0.173993
v -0.178370 0.092263 0.173993
v -0.192733 1.197626 -0.183989
v -0.192733 0.092263 -0.183989
v -0.192733 0.092263 0.164267
v -0.192733 1.197626 0.164267
v -0.304204 1.255957 0.287528
v -0.304204 1.483410 0.287528
vt 0.0393 0.3404
vt 0.0653 0.3404
vt 0.0653 0.6219
vt 0.0393 0.6219
vt 0.5863 0.4785
vt 0.4559 0.4785
vt 0.4559 0.4683
vt 0.5863 0.4683
vt 0.2508 0.4859
vt 0.2508 0.0694
vt 0.2604 0.0694
vt 0.2604 0.4859
vt 0.7346 0.6061
vt 0.6706 0.5541
vt 0.9889 0.5541
vt 0.9249 0.6061
vt 0.9249 0.7926
vt 0.9889 0.8356
vt 0.0071 0.9571
vt 0.0071 0.6388
vt 0.0332 0.6388
vt 0.0332 0.9571
vt 0.4322 0.7855
vt 0.6098 0.7855
vt 0.6556 0.8404
vt 0.3864 0.8404
vt 0.6999 0.8421
vt 0.9825 0.8421
vt 0.9825 0.8751
vt 0.0953 0.3376
vt 0.0953 0.6559
vt 0.0692 0.6559
vt 0.0692 0.3376
vt 0.6556 0.8317
vt 0.3864 0.5493
vt 0.4322 0.6042
vt 0.1210 0.9806
vt 0.3636 0.9792
vt 0.3636 0.9842
vt 0.1228 0.9856
vt 0.2107 0.0323
vt 0.2107 0.2826
vt 0.1171 0.2826
vt 0.1171 0.0323
vt 0.0026 0.0254
vt 0.0244 0.0179
vt 0.0452 0.0658
vt 0.0190 0.3171
vt 0.7606 0.9731
vt 0.6999 0.9731
vt 0.0026 0.3243
vt 0.0052 0.3313
vt 0.0497 0.8892
vt 0.0346 0.8758
vt 0.0994 0.8758
vt 0.0994 0.8892
vt 0.0785 0.9547
vt 0.0785 0.9317
vt 0.3659 0.9317
vt 0.3659 0.9547
vt 0.3966 0.9840
vt 0.3966 0.9790
vt 0.3363 0.8758
vt 0.3363 0.8892
vt 0.0645 0.9159
vt 0.3800 0.9159
vt 0.0438 0.3145
vt 0.3800 0.9047
vt 0.0645 0.9047
vt 0.0694 0.8992
vt 0.3751 0.8992
vt 0.7709 0.9776
vt 0.9898 0.8771
vt 0.9974 0.8857
vt 0.7711 0.9888
vt 0.7029 0.9784
vt 0.7030 0.9896
vt 0.0604 0.9790
vt 0.0548 0.9838
vt 0.3764 0.8758
vt 0.3764 0.8892
vt 0.2151 0.2826
vt 0.2151 0.0323
vt 0.3835 0.8805
vt 0.3835 0.8892
vt 0.3948 0.4859
vt 0.3948 0.4954
vt 0.2604 0.4954
vt 0.9894 0.8441
vt 0.9969 0.8437
vt 0.3835 0.8758
vt 0.3832 0.8559
vt 0.1094 0.8559
vt 0.1094 0.8389
vt 0.3832 0.8389
vt 0.2323 0.5461
vt 0.2323 0.0098
vt 0.2457 0.0260
vt 0.2457 0.5328
vt 0.6140 0.0098
vt 0.6140 0.5461
vt 0.6006 0.5328
vt 0.6006 0.0260
vt 0.4237 0.5461
vt 0.4371 0.5328
vt 0.8015 0.0098
vt 0.8015 0.5461
vt 0.7881 0.5328
vt 0.7881 0.0260
vt 0.6151 0.5461
vt 0.6284 0.5328
vt 0.6151 0.0098
vt 0.6284 0.0260
vt 0.4371 0.0260
vt 0.4237 0.0098
vt 0.0981 0.0036
vt 0.2292 0.0036
vt 0.2158 0.0169
vt 0.1115 0.0169
vt 0.2292 0.3093
vt 0.2158 0.2959
vt 0.5863 0.0544
vt 0.4559 0.0544
vt 0.6417 0.0684
vt 0.7783 0.0684
vt 0.7783 0.4918
vt 0.6417 0.4918
vt 0.4457 0.4683
vt 0.4457 0.0544
vt 0.1171 0.0279
vt 0.2107 0.0279
vt 0.7858 0.0684
vt 0.7858 0.4918
vt 0.5966 0.0544
vt 0.5966 0.4683
vt 0.3948 0.0599
vt 0.3948 0.0694
vt 0.2604 0.0599
vt 0.6417 0.0610
vt 0.7783 0.0610
vt 0.4559 0.0441
vt 0.5863 0.0441
vt 0.1115 0.2959
vt 0.0981 0.3093
vt 0.4226 0.0098
vt 0.4092 0.0260
vt 0.4092 0.5328
vt 0.4226 0.5461
vt 0.1094 0.5605
vt 0.3832 0.5605
vt 0.1127 0.2826
vt 0.1127 0.0323
vt 0.6417 0.4992
vt 0.7783 0.4992
vt 0.6706 0.8356
vt 0.7346 0.7926
vt 0.0382 0.3404
vt 0.0381 0.6219
vt 0.0120 0.6219
vt 0.0121 0.3404
vt 0.8249 0.5005
vt 0.8249 0.4945
vt 0.9664 0.4945
vt 0.9664 0.5005
vt 0.4044 0.4859
vt 0.4044 0.0694
vt 0.6556 0.5493
vt 0.6098 0.6042
vt 0.6794 0.8534
vt 0.3964 0.8823
vt 0.3969 0.8493
vt 0.6556 0.5580
vt 0.1316 0.9653
vt 0.1333 0.9603
vt 0.3742 0.9617
vt 0.3741 0.9667
vt 0.0892 0.0255
vt 0.0464 0.0657
vt 0.0675 0.0179
vt 0.0710 0.3171
vt 0.6168 0.9836
vt 0.6775 0.9844
vt 0.0874 0.3244
vt 0.0847 0.3314
vt 0.0497 0.8622
vt 0.0994 0.8622
vt 0.0994 0.8756
vt 0.0346 0.8756
vt 0.4071 0.9619
vt 0.4071 0.9669
vt 0.3363 0.8622
vt 0.3363 0.8756
vt 0.0463 0.3144
vt 0.6162 0.9869
vt 0.6164 0.9981
vt 0.3868 0.9026
vt 0.3941 0.8937
vt 0.6842 0.9853
vt 0.6845 0.9966
vt 0.0709 0.9669
vt 0.0653 0.9621
vt 0.3764 0.8622
vt 0.3764 0.8756
vt 0.3835 0.8709
vt 0.3835 0.8622
vt 0.3934 0.8608
vt 0.3859 0.8606
vt 0.3835 0.8756
vt 0.8026 0.0098
vt 0.8159 0.0260
vt 0.8159 0.5328
vt 0.8026 0.5461
vt 0.9756 0.5328
vt 0.9890 0.5461
vt 0.9756 0.0260
vt 0.9890 0.0098
vt 0.8249 0.0455
vt 0.9664 0.0455
vt 0.9724 0.4945
vt 0.9724 0.0455
vt 0.1171 0.2870
vt 0.2107 0.2870
vt 0.6342 0.0684
vt 0.6342 0.4918
vt 0.8189 0.0455
vt 0.8189 0.4945
vt 0.9664 0.0395
vt 0.8249 0.0395
vn 1.0000 0.0000 0.0000
vn -0.0000 -1.0000 0.0000
vn -1.0000 0.0000 0.0000
vn 0.0000 1.0000 0.0000
vn 0.0000 0.0000 1.0000
vn 0.0000 0.0000 -1.0000
vn 0.0770 -0.9113 0.4045
vn -1.0000 -0.0000 0.0005
vn 0.0000 -0.0817 -0.9967
vn -0.0000 0.9145 -0.4045
vn -1.0000 -0.0001 0.0001
vn 1.0000 0.0001 -0.0001
vn -1.0000 -0.0000 0.0004
vn 0.0000 -0.0001 1.0000
vn 0.0000 -0.9987 0.0503
vn 1.0000 0.0000 -0.0004
vn 0.0000 0.0001 -1.0000
vn -1.0000 0.0000 -0.0001
vn 0.0000 0.9378 -0.3471
vn -0.0770 -0.9113 0.4045
vn 1.0000 -0.0000 0.0005
vn 1.0000 -0.0001 0.0001
vn -1.0000 0.0001 -0.0001
vn 1.0000 -0.0000 0.0004
vn -1.0000 0.0000 -0.0004
vn 1.0000 0.0000 -0.0001
usemtl PreacherStand
s off
f 7/1/1 6/2/1 5/3/1 8/4/1
f 34/5/2 35/6/2 46/7/2 43/8/2
f 29/9/3 30/10/3 39/11/3 40/12/3
f 52/13/4 53/14/4 5/15/4 4/16/4
f 3/17/4 4/16/4 5/15/4 6/18/4
f 56/19/5 8/20/5 5/21/5 53/22/5
f 1/23/2 2/24/2 11/25/2 12/26/2
f 12/27/1 11/28/1 13/29/1
f 7/30/6 55/31/6 54/32/6 6/33/6
f 11/25/2 2/24/2 24/34/2
f 12/26/2 60/35/2 49/36/2 1/23/2
f 16/37/7 13/38/7 28/39/7 19/40/7
f 48/41/5 96/42/5 95/43/5 47/44/5
f 10/45/3 15/46/3 14/47/3
f 9/48/3 10/45/3 14/47/3
f 12/27/1 13/29/1 16/49/1
f 12/27/1 16/49/1 17/50/1
f 24/51/8 9/48/8 25/52/8
f 15/53/4 22/54/4 21/55/4 14/56/4
f 58/57/9 63/58/9 15/59/9 10/60/9
f 27/61/5 28/39/5 13/38/5 11/62/5
f 14/56/10 21/55/10 23/63/10 18/64/10
f 15/59/4 63/58/4 70/65/4 22/66/4
f 9/48/11 14/47/11 18/67/11
f 20/68/2 68/69/2 65/70/2 17/71/2
f 19/72/12 28/73/12 23/74/12 21/75/12
f 20/76/1 19/72/1 21/75/1 22/77/1
f 17/78/2 16/37/2 19/40/2 20/79/2
f 9/48/13 18/67/13 25/52/13
f 22/66/14 70/65/14 68/69/14 20/68/14
f 18/64/6 23/63/6 26/80/6 25/81/6
f 86/82/2 96/42/2 48/41/2 38/83/2
f 11/84/15 24/85/15 25/81/15 26/80/15
f 40/12/2 88/86/2 77/87/2 29/88/2
f 27/89/16 26/90/16 23/74/16 28/73/16
f 26/80/15 27/91/15 11/84/15
f 24/92/17 72/93/17 57/94/17 9/95/17
f 2/96/6 3/97/6 30/98/6 29/99/6
f 4/100/5 1/101/5 32/102/5 31/103/5
f 49/104/5 80/105/5 32/102/5 1/101/5
f 3/106/1 2/107/1 34/108/1 33/109/1
f 2/107/1 1/110/1 35/111/1 34/108/1
f 1/110/1 4/112/1 36/113/1 35/111/1
f 4/112/1 3/106/1 33/109/1 36/113/1
f 31/103/5 79/114/5 52/115/5 4/100/5
f 12/116/5 17/117/5 38/118/5 37/119/5
f 65/120/5 86/121/5 38/118/5 17/117/5
f 44/122/1 43/8/1 46/7/1 45/123/1
f 90/124/5 42/125/5 41/126/5 89/127/5
f 35/128/6 36/129/6 45/123/6 46/7/6
f 37/130/3 38/131/3 48/41/3 47/44/3
f 31/132/18 32/133/18 41/126/18 42/125/18
f 33/134/5 34/135/5 43/8/5 44/122/5
f 78/136/4 87/137/4 39/11/4 30/138/4
f 42/125/4 90/124/4 79/139/4 31/140/4
f 36/141/4 33/142/4 44/122/4 45/123/4
f 39/11/6 87/137/6 88/86/6 40/12/6
f 37/119/5 85/143/5 60/144/5 12/116/5
f 51/145/6 78/146/6 30/98/6 3/97/6
f 29/99/6 77/147/6 50/148/6 2/96/6
f 57/94/19 58/149/19 10/150/19 9/95/19
f 47/44/4 95/43/4 85/151/4 37/152/4
f 80/153/2 89/127/2 41/126/2 32/154/2
f 6/18/4 54/155/4 51/156/4 3/17/4
f 55/157/3 56/158/3 53/159/3 54/160/3
f 82/161/2 91/162/2 94/163/2 83/164/2
f 77/165/1 88/86/1 87/137/1 78/166/1
f 51/156/4 54/155/4 53/14/4 52/13/4
f 49/36/2 60/35/2 59/167/2 50/168/2
f 60/169/3 61/170/3 59/171/3
f 59/167/2 72/172/2 50/168/2
f 64/173/20 67/174/20 76/175/20 61/176/20
f 58/177/1 62/178/1 63/179/1
f 57/180/1 62/178/1 58/177/1
f 60/169/3 64/181/3 61/170/3
f 60/169/3 65/182/3 64/181/3
f 72/183/21 73/184/21 57/180/21
f 63/185/4 62/186/4 69/187/4 70/188/4
f 75/189/5 59/190/5 61/176/5 76/175/5
f 62/186/10 66/191/10 71/192/10 69/187/10
f 57/180/22 66/193/22 62/178/22
f 67/194/23 69/195/23 71/196/23 76/197/23
f 68/198/3 70/199/3 69/195/3 67/194/3
f 65/200/2 68/201/2 67/174/2 64/173/2
f 57/180/24 73/184/24 66/193/24
f 66/191/6 73/202/6 74/203/6 71/192/6
f 59/204/15 74/203/15 73/202/15 72/205/15
f 75/206/25 76/197/25 71/196/25 74/207/25
f 74/203/15 59/204/15 75/208/15
f 50/148/6 77/147/6 78/146/6 51/145/6
f 52/115/5 79/114/5 80/105/5 49/104/5
f 51/209/3 81/210/3 82/211/3 50/212/3
f 50/212/3 82/211/3 83/213/3 49/214/3
f 49/214/3 83/213/3 84/215/3 52/216/3
f 52/216/3 84/215/3 81/210/3 51/209/3
f 60/144/5 85/143/5 86/121/5 65/120/5
f 92/217/3 93/218/3 94/163/3 91/162/3
f 83/219/6 94/163/6 93/218/6 84/220/6
f 85/221/1 95/43/1 96/42/1 86/222/1
f 79/223/26 90/124/26 89/127/26 80/224/26
f 81/225/5 92/217/5 91/162/5 82/226/5
f 84/227/4 93/218/4 92/217/4 81/228/4
f 50/168/2 72/172/2 24/34/2 2/24/2
